<svg id="Capa_1" enable-background="new 0 0 512 512" height="512" viewBox="0 0 512 512" width="512" xmlns="http://www.w3.org/2000/svg"><g><path d="m199.23 449.739 28.927-67.142 26.251-8 29.435 8 28.927 67.142-57.354 10z" fill="#e8edf2"/><path d="m293.829 405.776-9.986-23.179h-55.686l-9.986 23.179z" fill="#c5d3dd"/><path d="m484.061 259.626h-456.122c-15.43 0-27.939 12.508-27.939 27.938v67.094c0 15.43 12.509 27.939 27.939 27.939h456.123c15.43 0 27.939-12.509 27.939-27.939v-67.094c-.001-15.43-12.51-27.938-27.94-27.938z" fill="#0ed2b3"/><path d="m484.061 26.124h-24.896c15.43 0 27.935 9.509 27.935 24.939v303.596c0 15.43-12.509 27.939-27.939 27.939h24.9c15.43 0 27.939-12.509 27.939-27.939v-67.094c0-15.431-12.509-261.441-27.939-261.441z" fill="#01998d"/><path d="m484.061 23.124h-456.123c-15.43 0-27.938 12.508-27.938 27.938v250.262c0 15.43 12.509 27.939 27.939 27.939h456.123c15.43 0 27.939-12.508 27.939-27.939v-250.262c-.001-15.43-12.509-27.938-27.94-27.938z" fill="#596c76"/><path d="m510.744 42.754c-.952-3.062-2.417-5.898-4.294-8.408-5.095-6.813-13.227-11.222-22.388-11.222h-24.896c15.427.004 27.935 12.511 27.935 27.939v278.033c14-1.515 24.9-13.368 24.9-27.771v-250.263c-.001-2.893-.441-5.683-1.257-8.308z" fill="#465a61"/><path d="m332.59 449.739h-153.18c-13.733 0-24.866 11.133-24.866 24.866v6.013c0 4.561 3.698 8.259 8.259 8.259h186.393c4.561 0 8.259-3.698 8.259-8.259v-6.013c0-13.733-11.132-24.866-24.865-24.866z" fill="#0ed2b3"/><path d="m331.839 449.739h-23.865c14.147 0 25.616 11.469 25.616 25.616v5.013c0 4.699-3.809 8.508-8.508 8.508h23.865c4.699 0 8.508-3.809 8.508-8.508v-5.013c0-14.147-11.468-25.616-25.616-25.616z" fill="#01998d"/><g><path d="m31.272 84.358v183.67c0 8.534 6.918 15.453 15.453 15.453h183.67c8.534 0 15.453-6.918 15.453-15.453v-183.67c0-8.534-6.918-15.453-15.453-15.453h-183.67c-8.535.001-15.453 6.919-15.453 15.453z" fill="#01c0fa"/><path d="m230.394 68.906h-23.179c8.534 0 15.453 6.919 15.453 15.453v183.67c0 8.534-6.918 15.453-15.453 15.453h23.179c8.534 0 15.453-6.918 15.453-15.453v-183.671c0-8.534-6.918-15.452-15.453-15.452z" fill="#0290cf"/><path d="m138.559 184.686c-4.267 0-7.726 3.459-7.726 7.726v91.068h15.453v-91.068c0-4.267-3.46-7.726-7.727-7.726z" fill="#aa6a51"/><ellipse cx="112.962" cy="227.809" fill="#5de1c4" rx="17.616" ry="29.542" transform="matrix(.5 -.866 .866 .5 -140.807 211.732)"/><ellipse cx="164.157" cy="227.809" fill="#5de1c4" rx="29.542" ry="17.616" transform="matrix(.866 -.5 .5 .866 -91.912 112.599)"/><path d="m165.837 118.296c-.816 0-1.622.044-2.416.127-.911.096-1.665-.658-1.569-1.569.083-.794.127-1.6.127-2.416 0-12.934-10.485-23.419-23.419-23.419s-23.419 10.485-23.419 23.419c0 .816.044 1.622.127 2.416.096.911-.658 1.665-1.569 1.569-.794-.083-1.6-.127-2.416-.127-12.934 0-23.419 10.485-23.419 23.419s10.485 23.419 23.419 23.419c.816 0 1.622-.044 2.416-.127.911-.096 1.665.658 1.569 1.569-.083.794-.127 1.6-.127 2.416 0 12.934 10.485 23.419 23.419 23.419s23.419-10.485 23.419-23.419c0-.816-.044-1.622-.127-2.416-.096-.911.658-1.665 1.569-1.569.794.083 1.6.127 2.416.127 12.934 0 23.419-10.485 23.419-23.419s-10.485-23.419-23.419-23.419z" fill="#fedf30"/><circle cx="138.559" cy="141.715" fill="#f5f8f9" r="14.737"/></g><path d="m298.307 74.159v79.461c0 9.321 7.556 16.878 16.878 16.878h117.859c9.321 0 16.878-7.556 16.878-16.878v-79.461c0-9.321-7.556-16.878-16.878-16.878h-117.86c-9.321.001-16.877 7.557-16.877 16.878z" fill="#b3dafe"/><path d="m396.088 138.361c-14.859 0-22.096-11.494-27.911-20.73-5.535-8.791-9.271-14.18-16.047-14.18-6.773 0-10.507 5.388-16.04 14.179-3.193 5.074-6.495 10.321-11.118 14.339-2.923 2.542-7.357 2.234-9.898-.692-2.542-2.925-2.232-7.357.692-9.899 3.058-2.659 5.676-6.818 8.447-11.223 5.814-9.239 13.05-20.737 27.916-20.737 14.867 0 22.106 11.497 27.922 20.736 5.533 8.788 9.267 14.173 16.035 14.173 6.774 0 10.51-5.386 16.044-14.172 3.195-5.072 6.498-10.317 11.124-14.338 2.923-2.542 7.356-2.234 9.898.692 2.542 2.924 2.232 7.356-.692 9.899-3.062 2.662-5.682 6.822-8.456 11.226-5.814 9.235-13.052 20.727-27.916 20.727z" fill="#0290cf"/><path d="m451.086 284.647h-153.943c-3.875 0-7.016-3.141-7.016-7.016s3.141-7.016 7.016-7.016h153.943c3.875 0 7.016 3.141 7.016 7.016s-3.141 7.016-7.016 7.016z" fill="#8ac9fe"/><path d="m451.086 225.397h-153.943c-3.875 0-7.016-3.141-7.016-7.016s3.141-7.016 7.016-7.016h153.943c3.875 0 7.016 3.141 7.016 7.016s-3.141 7.016-7.016 7.016z" fill="#8ac9fe"/><g fill="#f5f8f9"><path d="m333.817 195.755c-12.476 0-22.625 10.15-22.625 22.626 0 12.475 10.149 22.625 22.625 22.625s22.625-10.15 22.625-22.625c.001-12.476-10.149-22.626-22.625-22.626z"/><path d="m391.589 255.006c-12.476 0-22.625 10.15-22.625 22.625 0 12.476 10.149 22.626 22.625 22.626s22.625-10.15 22.625-22.626c0-12.475-10.15-22.625-22.625-22.625z"/></g></g></svg>