<svg id="Capa_1" enable-background="new 0 0 512 512" height="512" viewBox="0 0 512 512" width="512" xmlns="http://www.w3.org/2000/svg"><g><g><g><path d="m493.374 81.029h-474.748c-10.282 0-18.626 8.334-18.626 18.626v232.522l18.099 11.309h475.801l18.1-11.309v-232.522c0-10.292-8.345-18.626-18.626-18.626z" fill="#2b3890"/><path d="m493.374 81.029h-18.906c10.281 0 18.626 8.334 18.626 18.626v243.832h.806l18.1-11.31v-232.522c0-10.292-8.345-18.626-18.626-18.626z" fill="#242e7a"/></g><path d="m512 332.177v64.912c0 10.292-8.344 18.636-18.626 18.636h-474.748c-10.282-.001-18.626-8.345-18.626-18.637v-64.912h512z" fill="#dae7ef"/><path d="m493.094 332.177v64.912c0 10.292-8.345 18.636-18.626 18.636h18.906c10.281 0 18.626-8.344 18.626-18.636v-64.912z" fill="#c1d5e4"/><g><path d="m28.845 332.181v-219.075c0-1.787 1.448-3.235 3.235-3.235h447.84c1.787 0 3.235 1.448 3.235 3.235v219.076h-454.31z" fill="#b1e4f9"/><path d="m462.973 109.871v222.31h20.182v-219.075c0-1.787-1.448-3.235-3.235-3.235z" fill="#90d8f9"/></g><g><path d="m265.629 382.231h-19.258c-4.573 0-8.281-3.707-8.281-8.281s3.707-8.281 8.281-8.281h19.258c4.574 0 8.281 3.707 8.281 8.281-.001 4.574-3.707 8.281-8.281 8.281z" fill="#242e7a"/></g><path d="m357.776 512h-203.552c-2.383 0-4.04-2.369-3.224-4.608l4.651-12.745c2.159-5.915 8.834-9.971 16.41-9.971h167.877c7.576 0 14.251 4.056 16.41 9.971l4.651 12.745c.817 2.239-.84 4.608-3.223 4.608z" fill="#dae7ef"/><path d="m302.548 415.724h-93.096c8.564 27.063.771 51.421-23.382 68.952h139.86c-24.152-17.531-31.946-41.888-23.382-68.952z" fill="#c1d5e4"/><path d="m209.452 415.724c2.148 6.787 3.266 13.404 3.356 19.787h86.385c.09-6.382 1.208-12.999 3.356-19.787z" fill="#98b9d3"/></g><circle cx="255.988" cy="58.239" fill="#dd5ca2" r="58.239"/><path d="m255.988 0c-4.078 0-8.056.423-11.897 1.22 26.458 5.492 46.342 28.932 46.342 57.019s-19.884 51.526-46.342 57.019c3.841.797 7.819 1.22 11.897 1.22 32.164 0 58.239-26.074 58.239-58.239s-26.074-58.239-58.239-58.239z" fill="#da4093"/><path d="m273.395 56.707-27.212-25.743c-1.344-1.272-3.558-.319-3.558 1.532v51.486c0 1.851 2.214 2.804 3.558 1.532l27.212-25.743c.879-.832.879-2.232 0-3.064z" fill="#f9f6f6"/><circle cx="391.368" cy="123.176" fill="#86f1a7" r="58.239"/><path d="m391.368 64.937c-4.078 0-8.056.423-11.897 1.22 26.458 5.492 46.342 28.932 46.342 57.019s-19.884 51.526-46.342 57.019c3.841.797 7.819 1.22 11.897 1.22 32.164 0 58.239-26.074 58.239-58.239s-26.075-58.239-58.239-58.239z" fill="#80e29d"/><path d="m419.109 102.491c-2.764-4.575-9.226-15.289-29.097-13.137-3.922.426-6.893 3.737-6.893 7.682v24.352c-.852-.124-1.716-.209-2.602-.209-9.955 0-18.053 8.099-18.053 18.054s8.099 18.054 18.053 18.054c9.955 0 18.054-8.099 18.054-18.054 0-.53-.035-1.051-.079-1.57.047-.344.079-.693.079-1.05v-31.836c4.344.793 5.81 3.219 7.361 5.788 2.206 3.652 6.931 4.783 10.582 2.576 3.654-2.207 4.802-6.997 2.595-10.65zm-38.591 39.343c-1.434 0-2.601-1.167-2.601-2.601 0-1.435 1.167-2.602 2.601-2.602 1.435 0 2.602 1.167 2.602 2.602-.001 1.434-1.168 2.601-2.602 2.601z" fill="#ffe07d"/><circle cx="333.129" cy="248.789" fill="#80b4fb" r="58.239"/><path d="m391.368 248.789c0-32.164-26.074-58.239-58.239-58.239-4.078 0-8.056.423-11.897 1.22 26.458 5.492 46.342 28.932 46.342 57.019s-19.884 51.526-46.342 57.019c3.841.797 7.819 1.22 11.897 1.22 32.165 0 58.239-26.075 58.239-58.239z" fill="#61a2f9"/><path d="m321.565 239.439c-.233-.32-.605-.509-1-.509-.396 0-.767.189-1 .509l-19.476 26.737c-.274.376-.314.875-.103 1.289.211.415.637.676 1.103.676h41.384z" fill="#242e7a"/><path d="m346.693 239.439c-.233-.32-.605-.509-1-.509s-.767.189-1 .509l-20.908 28.703h41.384c.466 0 .892-.261 1.103-.676s.171-.913-.103-1.289z" fill="#2b3890"/><g><path d="m356.3 228.975c-4.268 0-7.726-3.459-7.726-7.726s3.459-7.754 7.726-7.754 7.726 3.432 7.726 7.699v.055c.001 4.267-3.458 7.726-7.726 7.726z" fill="#ffe07d"/></g><circle cx="120.632" cy="123.176" fill="#f9f6f6" r="58.239"/><path d="m120.632 64.937c-4.078 0-8.056.423-11.897 1.22 26.458 5.492 46.342 28.932 46.342 57.019s-19.884 51.526-46.342 57.019c3.841.797 7.819 1.22 11.897 1.22 32.164 0 58.239-26.074 58.239-58.239s-26.075-58.239-58.239-58.239z" fill="#dae7ef"/><g><g><path d="m136.655 108.941h-32.045c-4.268 0-7.726-3.459-7.726-7.726s3.459-7.726 7.726-7.726h32.045c4.268 0 7.726 3.459 7.726 7.726s-3.459 7.726-7.726 7.726z" fill="#2b3890"/></g><g><path d="m136.655 130.903h-32.045c-4.268 0-7.726-3.459-7.726-7.726s3.459-7.726 7.726-7.726h32.045c4.268 0 7.726 3.459 7.726 7.726 0 4.266-3.459 7.726-7.726 7.726z" fill="#2b3890"/></g><g><path d="m136.655 152.864h-32.045c-4.268 0-7.726-3.459-7.726-7.726s3.459-7.726 7.726-7.726h32.045c4.268 0 7.726 3.459 7.726 7.726s-3.459 7.726-7.726 7.726z" fill="#2b3890"/></g></g><circle cx="178.871" cy="248.789" fill="#eab14d" r="58.239"/><path d="m178.871 190.55c-4.078 0-8.056.423-11.897 1.22 26.458 5.492 46.342 28.932 46.342 57.019s-19.884 51.526-46.342 57.019c3.841.797 7.819 1.22 11.897 1.22 32.164 0 58.239-26.074 58.239-58.239s-26.075-58.239-58.239-58.239z" fill="#e7a52e"/><path d="m204.165 214.741h-50.588c-4.268 0-7.726 3.459-7.726 7.726v11.051c0 4.267 3.459 7.726 7.726 7.726 4.268 0 7.726-3.459 7.726-7.726v-3.324h9.841v44.917c0 4.268 3.459 7.726 7.726 7.726 4.268 0 7.726-3.459 7.726-7.726v-44.917h9.841v3.324c0 4.267 3.459 7.726 7.726 7.726 4.268 0 7.726-3.459 7.726-7.726v-11.051c.002-4.267-3.457-7.726-7.724-7.726z" fill="#242e7a"/></g></svg>