<svg xmlns="http://www.w3.org/2000/svg" height="511pt" version="1.1" viewBox="-105 1 511 511.99999" width="511pt">
<g id="surface1">
<path d="M 0.5 52.964844 L 0.5 459.035156 L 79.949219 459.035156 C 201.761719 459.101562 300.570312 360.40625 300.636719 238.59375 C 300.636719 238.507812 300.636719 238.425781 300.636719 238.34375 L 300.636719 52.964844 Z M 168.222656 185.378906 L 221.191406 185.378906 L 221.191406 238.34375 L 168.222656 238.34375 Z M 132.914062 326.621094 L 79.949219 326.621094 L 79.949219 273.65625 L 132.914062 273.65625 Z M 132.914062 238.34375 L 79.949219 238.34375 L 79.949219 185.378906 L 132.914062 185.378906 Z M 194.707031 337.59375 L 157.25 300.136719 L 194.707031 262.683594 L 232.164062 300.136719 Z M 194.707031 337.59375 " style=" stroke:none;fill-rule:nonzero;fill:rgb(100%,96.862745%,83.921569%);fill-opacity:1;" />
<path d="M 265.328125 0 L 35.8125 0 C 16.308594 0 0.5 15.808594 0.5 35.308594 L 0.5 52.964844 L 300.636719 52.964844 L 300.636719 35.308594 C 300.636719 15.808594 284.828125 0 265.328125 0 Z M 265.328125 0 " style=" stroke:none;fill-rule:nonzero;fill:rgb(42.745098%,43.137255%,44.313725%);fill-opacity:1;" />
<path d="M 0.5 476.691406 C 0.5 496.191406 16.308594 512 35.808594 512 L 265.328125 512 C 284.828125 512 300.636719 496.191406 300.636719 476.691406 L 300.636719 459.035156 L 0.5 459.035156 Z M 0.5 476.691406 " style=" stroke:none;fill-rule:nonzero;fill:rgb(42.745098%,43.137255%,44.313725%);fill-opacity:1;" />
<path d="M 79.949219 185.378906 L 132.914062 185.378906 L 132.914062 238.34375 L 79.949219 238.34375 Z M 79.949219 185.378906 " style=" stroke:none;fill-rule:nonzero;fill:rgb(92.941176%,10.980392%,14.117647%);fill-opacity:1;" />
<path d="M 168.222656 185.378906 L 221.191406 185.378906 L 221.191406 238.34375 L 168.222656 238.34375 Z M 168.222656 185.378906 " style=" stroke:none;fill-rule:nonzero;fill:rgb(0%,42.745098%,94.117647%);fill-opacity:1;" />
<path d="M 79.949219 273.65625 L 132.914062 273.65625 L 132.914062 326.621094 L 79.949219 326.621094 Z M 79.949219 273.65625 " style=" stroke:none;fill-rule:nonzero;fill:rgb(0%,40.784314%,21.960784%);fill-opacity:1;" />
<path d="M 157.25 300.136719 L 194.703125 262.6875 L 232.152344 300.136719 L 194.703125 337.589844 Z M 157.25 300.136719 " style=" stroke:none;fill-rule:nonzero;fill:rgb(100%,83.137255%,13.333333%);fill-opacity:1;" />
<path d="M 79.949219 459.035156 L 300.636719 459.035156 L 300.636719 238.34375 C 300.707031 360.160156 202.011719 458.964844 80.195312 459.035156 C 80.113281 459.035156 80.03125 459.035156 79.949219 459.035156 Z M 79.949219 459.035156 " style=" stroke:none;fill-rule:nonzero;fill:rgb(100%,92.156863%,60%);fill-opacity:1;" />
<path d="M 115.257812 35.308594 L 124.085938 35.308594 C 128.960938 35.308594 132.914062 31.359375 132.914062 26.484375 C 132.914062 21.605469 128.960938 17.65625 124.085938 17.65625 L 115.257812 17.65625 C 110.382812 17.65625 106.429688 21.605469 106.429688 26.484375 C 106.429688 31.359375 110.382812 35.308594 115.257812 35.308594 Z M 115.257812 35.308594 " style=" stroke:none;fill-rule:nonzero;fill:rgb(94.509804%,94.901961%,94.901961%);fill-opacity:1;" />
<path d="M 150.570312 35.308594 L 185.878906 35.308594 C 190.753906 35.308594 194.707031 31.359375 194.707031 26.484375 C 194.707031 21.605469 190.753906 17.65625 185.878906 17.65625 L 150.570312 17.65625 C 145.695312 17.65625 141.742188 21.605469 141.742188 26.484375 C 141.742188 31.359375 145.695312 35.308594 150.570312 35.308594 Z M 150.570312 35.308594 " style=" stroke:none;fill-rule:nonzero;fill:rgb(94.509804%,94.901961%,94.901961%);fill-opacity:1;" />
<path d="M 168.222656 476.691406 L 132.914062 476.691406 C 128.039062 476.691406 124.085938 480.640625 124.085938 485.515625 C 124.085938 490.394531 128.039062 494.34375 132.914062 494.34375 L 168.222656 494.34375 C 173.101562 494.34375 177.050781 490.394531 177.050781 485.515625 C 177.050781 480.640625 173.097656 476.691406 168.222656 476.691406 Z M 168.222656 476.691406 " style=" stroke:none;fill-rule:nonzero;fill:rgb(94.509804%,94.901961%,94.901961%);fill-opacity:1;" />
</g>
</svg>